<?xml version="1.0" encoding="UTF-8"?>
<svg version="1.1" xmlns="http://www.w3.org/2000/svg" width="512" height="512">
<path d="M0 0 C3.58552881 1.63687185 4.79315055 2.68972583 7 6 C8.21119956 12.83371541 6.4459458 17.90209911 3.43359375 23.9609375 C-14.04744182 61.01882762 -8.21897401 102.68095249 5.07592773 139.8527832 C10.44613349 154.45365669 16.97659641 168.50012809 24.23046875 182.2578125 C36.27048867 205.19947131 41.2301731 229.0909505 41.25 254.875 C41.25067474 255.66067352 41.25134949 256.44634705 41.25204468 257.25582886 C41.23630821 268.77565593 40.81690695 279.77950547 38 291 C37.83371094 291.71784668 37.66742188 292.43569336 37.49609375 293.17529297 C32.22778579 315.736334 21.69470373 336.15971125 7 354 C6.2575 354.90878906 5.515 355.81757813 4.75 356.75390625 C-1.60985492 364.19266513 -11.137384 373.87867616 -21.30078125 375.328125 C-26.88888889 375.11111111 -26.88888889 375.11111111 -28 374 C-28.60465792 365.86303193 -26.6674082 358.71156006 -24.625 350.875 C-18.7455316 327.45732183 -16.63867893 304.75527232 -22 281 C-22.1556543 280.29520508 -22.31130859 279.59041016 -22.47167969 278.86425781 C-27.63319187 256.31226147 -38.48002755 235.77300365 -48.83738708 215.26522827 C-57.42272769 198.25968448 -65.42974361 181.57474384 -70 163 C-70.17644043 162.31180176 -70.35288086 161.62360352 -70.53466797 160.91455078 C-79.94716752 122.62088311 -71.19931611 76.89726526 -51.26123047 43.40454102 C-46.74622932 36.13911234 -41.74097995 29.3517225 -36 23 C-35.11957031 22.02546875 -34.23914063 21.0509375 -33.33203125 20.046875 C-27.95148297 14.29531808 -22.15878838 9.32888016 -15.75 4.75 C-15.10087646 4.27175781 -14.45175293 3.79351562 -13.78295898 3.30078125 C-8.98586551 0.01788646 -5.79609725 -0.59431441 0 0 Z " fill="#92BFFC" transform="translate(152,64)"/>
<path d="M0 0 C2.97551795 1.77603298 5.42755188 3.85510377 7 7 C7.55277104 13.69958504 6.03449727 18.13107123 3.3125 24.1875 C0.2325653 31.42974841 -2.15947248 38.58118901 -3.9375 46.25 C-4.13625732 47.1061792 -4.33501465 47.9623584 -4.53979492 48.84448242 C-13.30230665 88.40996482 1.54547394 124.61972469 17.88418579 159.97018433 C31.79706502 190.083516 44.47497905 219.71375946 44.375 253.4375 C44.37445618 254.1335434 44.37391235 254.82958679 44.37335205 255.54672241 C44.2326036 294.9816231 29.40464434 333.30713442 1.58984375 361.4375 C-6.22400637 368.71388953 -14.11953169 374.20529185 -25 374 C-26.8886626 369.37865707 -27.10000102 366.58693892 -25.9375 361.75 C-25.64875 360.53183594 -25.36 359.31367188 -25.0625 358.05859375 C-23.72240013 352.84122417 -22.24506491 347.66148407 -20.77612305 342.47924805 C-6.36372916 291.17464775 -28.50879314 242.21912629 -50.703125 196.8046875 C-60.56446116 176.50432128 -60.56446116 176.50432128 -63.1875 166.9375 C-63.4345166 166.03741211 -63.6815332 165.13732422 -63.93603516 164.20996094 C-70.68611178 138.7334341 -72.10248497 109.79118528 -66 84 C-65.82839355 83.25298828 -65.65678711 82.50597656 -65.47998047 81.73632812 C-57.6737606 48.66976676 -38.83728894 19.4406874 -10 1 C-6.34711807 -0.21762731 -3.84245864 -0.39075851 0 0 Z " fill="#92BEFC" transform="translate(387,64)"/>
<path d="M0 0 C0.63041821 9.65624455 -1.2495157 18.11199794 -3.875 27.3125 C-7.69073325 40.83171997 -10.41195074 54.09958039 -10.3125 68.25 C-10.30686035 69.13494141 -10.3012207 70.01988281 -10.29541016 70.93164062 C-9.73165182 102.25650998 3.12947841 130.32425298 16.00842285 158.27478027 C39.60285216 209.48302574 52.13988541 256.46850973 32.13964844 311.36132812 C26.37891279 326.22469987 18.6037185 340.0777806 8 352 C7.31550781 352.82757813 6.63101563 353.65515625 5.92578125 354.5078125 C-1.38619817 363.13081226 -13.83742321 376.01486142 -25.625 377.4375 C-29.32998086 376.9572247 -31.13665595 376.38612004 -34 374 C-36.68821353 370.14689393 -37.51203736 367.1083047 -36.70703125 362.4375 C-35.62540519 358.7085792 -34.02129243 355.2300453 -32.44238281 351.68847656 C-14.97920627 312.13157845 -20.46101103 268.49654165 -35.65649414 229.15283203 C-39.64423604 219.14357707 -44.05645127 209.44894589 -49.0234375 199.89355469 C-60.70881045 177.23561653 -68.18728969 153.68871292 -69 128 C-69.03996094 127.09378906 -69.07992187 126.18757813 -69.12109375 125.25390625 C-69.49681126 109.31906358 -67.13830874 93.35476435 -63 78 C-62.80986328 77.2869873 -62.61972656 76.57397461 -62.42382812 75.83935547 C-57.37308677 57.5614677 -48.39963843 39.40248384 -36 25 C-35.23816406 24.113125 -34.47632813 23.22625 -33.69140625 22.3125 C-31.50267002 19.83217834 -29.26648801 17.40919281 -27 15 C-26.14148438 14.04480469 -26.14148438 14.04480469 -25.265625 13.0703125 C-18.46063519 5.77925198 -10.18102351 -0.22624497 0 0 Z " fill="#92BFFC" transform="translate(268,73)"/>
</svg>
